<svg xmlns="http://www.w3.org/2000/svg" width="24" height="24" viewBox="0 0 24 24">
  <path d="M22,9.5A1.5,1.5,0,0,0,20.5,8H15.4L12.447,2.755a.5.5,0,0,0-.436-.255h0a.5.5,0,0,0-.436.256L8.645,8H3.5a1.5,1.5,0,0,0-.427,2.931l1.563,8.175A2.5,2.5,0,0,0,7.062,21h9.876a2.5,2.5,0,0,0,2.432-1.921l1.557-8.148A1.5,1.5,0,0,0,22,9.5ZM12.013,4.023,14.247,8H9.791ZM19.132,15H15.553l.4-4H19.9Zm-4.585,0H9.441l-.409-4h5.915Zm-.1,1-.4,4h-4.1l-.409-4ZM8.026,11l.409,4H4.869l-.764-4ZM5.612,18.891,5.06,16H8.537l.409,4H7.062A1.492,1.492,0,0,1,5.612,18.891Zm12.782-.027A1.5,1.5,0,0,1,16.938,20H15.053l.4-4h3.488ZM20.5,10H3.5a.5.5,0,0,1,0-1H8.086l-.044.081a.5.5,0,0,0,.873.487L9.232,9h5.577l.255.453A.5.5,0,0,0,15.948,9H20.5a.5.5,0,0,1,0,1Z"/>
</svg>
