<svg xmlns="http://www.w3.org/2000/svg" xmlns:xlink="http://www.w3.org/1999/xlink" width="629" height="604" viewBox="0 0 629 604">
  <defs>
    <clipPath id="clip-path">
      <rect id="Rectangle_109" data-name="Rectangle 109" width="631" height="592" fill="none"/>
    </clipPath>
    <clipPath id="clip-path-2">
      <rect id="Rectangle_102" data-name="Rectangle 102" width="518.599" height="519.722" fill="none"/>
    </clipPath>
    <clipPath id="clip-path-3">
      <rect id="Rectangle_90" data-name="Rectangle 90" width="304.343" height="30.163" fill="none"/>
    </clipPath>
    <clipPath id="clip-path-4">
      <rect id="Rectangle_91" data-name="Rectangle 91" width="293.794" height="23.267" fill="none"/>
    </clipPath>
    <clipPath id="clip-path-5">
      <rect id="Rectangle_92" data-name="Rectangle 92" width="122.364" height="23.267" fill="none"/>
    </clipPath>
    <clipPath id="clip-path-6">
      <rect id="Rectangle_93" data-name="Rectangle 93" width="126.232" height="23.267" fill="none"/>
    </clipPath>
    <clipPath id="clip-path-7">
      <rect id="Rectangle_94" data-name="Rectangle 94" width="122.217" height="23.267" fill="none"/>
    </clipPath>
    <clipPath id="clip-path-8">
      <rect id="Rectangle_95" data-name="Rectangle 95" width="248.447" height="30.163" fill="none"/>
    </clipPath>
    <clipPath id="clip-path-9">
      <rect id="Rectangle_96" data-name="Rectangle 96" width="465.79" height="23.267" fill="none"/>
    </clipPath>
    <clipPath id="clip-path-10">
      <rect id="Rectangle_97" data-name="Rectangle 97" width="518.599" height="23.267" fill="none"/>
    </clipPath>
    <clipPath id="clip-path-11">
      <rect id="Rectangle_98" data-name="Rectangle 98" width="301.049" height="23.267" fill="none"/>
    </clipPath>
    <clipPath id="clip-path-12">
      <rect id="Rectangle_99" data-name="Rectangle 99" width="488.607" height="30.164" fill="none"/>
    </clipPath>
    <clipPath id="clip-path-13">
      <rect id="Rectangle_100" data-name="Rectangle 100" width="37.37" height="30.164" fill="none"/>
    </clipPath>
    <clipPath id="clip-path-14">
      <rect id="Rectangle_101" data-name="Rectangle 101" width="451.51" height="23.267" fill="none"/>
    </clipPath>
    <clipPath id="clip-path-15">
      <rect id="Rectangle_104" data-name="Rectangle 104" width="68.771" height="34.9" fill="none"/>
    </clipPath>
    <clipPath id="clip-path-19">
      <rect id="Rectangle_108" data-name="Rectangle 108" width="217.504" height="40.719" fill="none"/>
    </clipPath>
    <clipPath id="clip-Take1">
      <rect width="629" height="604"/>
    </clipPath>
  </defs>
  <g id="Take1" clip-path="url(#clip-Take1)">
    <rect width="629" height="604" fill="#fff"/>
    <g id="Group_275" data-name="Group 275">
      <rect id="Rectangle_89" data-name="Rectangle 89" width="631" height="592" fill="#fff"/>
      <g id="Group_274" data-name="Group 274">
        <g id="Group_273" data-name="Group 273" clip-path="url(#clip-path)">
          <g id="Group_254" data-name="Group 254" transform="translate(0.445 71.932)" style="isolation: isolate">
            <g id="Group_253" data-name="Group 253">
              <g id="Group_252" data-name="Group 252" clip-path="url(#clip-path-2)">
                <g id="Group_218" data-name="Group 218" style="isolation: isolate">
                  <g id="Group_217" data-name="Group 217">
                    <g id="Group_216" data-name="Group 216" clip-path="url(#clip-path-3)">
                      <text id="Take_Bake_Savoury_Pies" data-name="Take &amp; Bake Savoury Pies" transform="translate(0 20.775)" fill="#414141" font-size="25" font-family="ProximaNova-Bold, Proxima Nova" font-weight="700"><tspan x="0" y="0" letter-spacing="-0.077em">T</tspan><tspan y="0">a</tspan><tspan y="0" letter-spacing="-0.02em">k</tspan><tspan y="0">e &amp; Ba</tspan><tspan y="0" letter-spacing="-0.02em">k</tspan><tspan y="0">e Savoury Pies</tspan></text>
                    </g>
                  </g>
                </g>
                <g id="Group_221" data-name="Group 221" transform="translate(0 39.346)" style="isolation: isolate">
                  <g id="Group_220" data-name="Group 220">
                    <g id="Group_219" data-name="Group 219" clip-path="url(#clip-path-4)">
                      <text id="Choose_any_avor_combination._" data-name="Choose any ﬂavor combination. " transform="translate(0 15.932)" fill="#414141" font-size="20" font-family="ProximaNova-Regular, Proxima Nova"><tspan x="0" y="0">Choose any ﬂavor combination. </tspan></text>
                    </g>
                  </g>
                </g>
                <g id="Group_224" data-name="Group 224" transform="translate(0 74.508)" style="isolation: isolate">
                  <g id="Group_223" data-name="Group 223">
                    <g id="Group_222" data-name="Group 222" clip-path="url(#clip-path-5)">
                      <text id="_2-Pack_165_-" data-name="2-Pack / 165,-" transform="translate(0 15.931)" fill="#414141" font-size="20" font-family="ProximaNova-Regular, Proxima Nova"><tspan x="0" y="0">2-</tspan><tspan y="0" letter-spacing="-0.019em">P</tspan><tspan y="0">ack / 165,-</tspan></text>
                    </g>
                  </g>
                </g>
                <g id="Group_227" data-name="Group 227" transform="translate(0 109.67)" style="isolation: isolate">
                  <g id="Group_226" data-name="Group 226">
                    <g id="Group_225" data-name="Group 225" clip-path="url(#clip-path-6)">
                      <text id="_4-Pack_325_-" data-name="4-Pack / 325,-" transform="translate(0 15.931)" fill="#414141" font-size="20" font-family="ProximaNova-Regular, Proxima Nova"><tspan x="0" y="0">4-</tspan><tspan y="0" letter-spacing="-0.019em">P</tspan><tspan y="0">ack / 325,-</tspan></text>
                    </g>
                  </g>
                </g>
                <g id="Group_230" data-name="Group 230" transform="translate(0 144.833)" style="isolation: isolate">
                  <g id="Group_229" data-name="Group 229">
                    <g id="Group_228" data-name="Group 228" clip-path="url(#clip-path-7)">
                      <text id="_8-Pack_615_-" data-name="8-Pack / 615,-" transform="translate(0 15.931)" fill="#414141" font-size="20" font-family="ProximaNova-Regular, Proxima Nova"><tspan x="0" y="0">8-</tspan><tspan y="0" letter-spacing="-0.019em">P</tspan><tspan y="0">ack / 615,-</tspan></text>
                    </g>
                  </g>
                </g>
                <g id="Group_233" data-name="Group 233" transform="translate(0 210.974)" style="isolation: isolate">
                  <g id="Group_232" data-name="Group 232">
                    <g id="Group_231" data-name="Group 231" clip-path="url(#clip-path-8)">
                      <text id="Take_Bake_Quiches" data-name="Take &amp; Bake Quiches" transform="translate(0 20.776)" fill="#414141" font-size="25" font-family="ProximaNova-Bold, Proxima Nova" font-weight="700"><tspan x="0" y="0" letter-spacing="-0.077em">T</tspan><tspan y="0">a</tspan><tspan y="0" letter-spacing="-0.02em">k</tspan><tspan y="0">e &amp; Ba</tspan><tspan y="0" letter-spacing="-0.02em">k</tspan><tspan y="0">e Quiches</tspan></text>
                    </g>
                  </g>
                </g>
                <g id="Group_236" data-name="Group 236" transform="translate(0 250.321)" style="isolation: isolate">
                  <g id="Group_235" data-name="Group 235">
                    <g id="Group_234" data-name="Group 234" clip-path="url(#clip-path-9)">
                      <path id="Path_7" data-name="Path 7" d="M12.508,238.534,9.435,227.728,6.363,238.534H4.481L.51,225.137H2.433L5.527,236.3l3.2-11.168h1.442l3.2,11.168,3.073-11.168h1.923l-3.971,13.4ZM23.8,228.592c3.052,0,4.85,2.29,4.85,5.2v.382H20.476a3.494,3.494,0,0,0,3.637,3.355,4.5,4.5,0,0,0,3.115-1.225l.752.984a5.6,5.6,0,0,1-4.013,1.487,5.093,5.093,0,0,1-.168-10.184Zm-3.323,4.48H27.1a3.2,3.2,0,0,0-3.323-3.235A3.3,3.3,0,0,0,20.476,233.072Zm15.512.6a5,5,0,1,1,5,5.1A4.847,4.847,0,0,1,35.988,233.673Zm8.341,0c0-1.969-1.192-3.737-3.345-3.737a3.437,3.437,0,0,0-3.366,3.737c0,1.989,1.214,3.757,3.366,3.757S44.329,235.662,44.329,233.673Zm4.642,4.861v-8.376H47.3v-1.325h1.672v-.744a2.819,2.819,0,0,1,2.926-3.154,2.986,2.986,0,0,1,1.526.341l-.4,1.125a1.777,1.777,0,0,0-.9-.221c-1.024,0-1.588.683-1.588,1.908v.744h2.048v1.325H50.539v8.376Zm5.917,0v-8.376H53.215v-1.325h1.672v-.744a2.819,2.819,0,0,1,2.926-3.154,2.98,2.98,0,0,1,1.525.341l-.4,1.125a1.786,1.786,0,0,0-.9-.221c-1.024,0-1.588.683-1.588,1.908v.744H58.5v1.325H56.454v8.376Zm9.867-9.942c3.052,0,4.85,2.29,4.85,5.2v.382H61.432a3.494,3.494,0,0,0,3.637,3.355,4.5,4.5,0,0,0,3.115-1.225l.752.984a5.6,5.6,0,0,1-4.013,1.487,5.093,5.093,0,0,1-.168-10.184Zm-3.323,4.48h6.625a3.2,3.2,0,0,0-3.323-3.235A3.3,3.3,0,0,0,61.432,233.072Zm10.7,5.462v-9.7H73.7V230.4a4.341,4.341,0,0,1,3.366-1.768v1.546a2.869,2.869,0,0,0-.628-.061,3.722,3.722,0,0,0-2.738,1.548v6.868Zm18.606,0v-1.1a4.454,4.454,0,0,1-3.345,1.345,3.31,3.31,0,0,1-3.533-3.214,3.256,3.256,0,0,1,3.533-3.193,4.3,4.3,0,0,1,3.345,1.325v-1.747c0-1.306-1.086-2.048-2.55-2.048a4.079,4.079,0,0,0-3.093,1.345l-.732-1.044a5.391,5.391,0,0,1,4.035-1.607c2.132,0,3.909.924,3.909,3.274v6.669Zm0-3.877a3.441,3.441,0,0,0-2.78-1.205,2.146,2.146,0,1,0,0,4.239,3.441,3.441,0,0,0,2.78-1.205Zm11.519,3.877v-6.346A1.965,1.965,0,0,0,100,229.937a3.946,3.946,0,0,0-2.99,1.507v7.09H95.447v-9.7h1.567v1.406a5.086,5.086,0,0,1,3.6-1.648c2.111,0,3.219,1.024,3.219,3.133v6.809Zm16.412,0v-1.1a4.455,4.455,0,0,1-3.345,1.345,3.31,3.31,0,0,1-3.533-3.214,3.256,3.256,0,0,1,3.533-3.193,4.3,4.3,0,0,1,3.345,1.325v-1.747c0-1.306-1.086-2.048-2.55-2.048a4.079,4.079,0,0,0-3.093,1.345L112.3,230.2a5.391,5.391,0,0,1,4.035-1.607c2.132,0,3.909.924,3.909,3.274v6.669Zm0-3.877a3.441,3.441,0,0,0-2.78-1.205,2.146,2.146,0,1,0,0,4.239,3.441,3.441,0,0,0,2.78-1.205Zm4.706,3.877v-9.7h1.567V230.4a4.341,4.341,0,0,1,3.366-1.768v1.546a2.85,2.85,0,0,0-.628-.061,3.725,3.725,0,0,0-2.738,1.548v6.868Zm6.9,0v-9.7h1.568V230.4a4.336,4.336,0,0,1,3.365-1.768v1.546a2.846,2.846,0,0,0-.626-.061,3.719,3.719,0,0,0-2.738,1.548v6.868Zm13.212,0v-1.1a4.455,4.455,0,0,1-3.345,1.345,3.31,3.31,0,0,1-3.533-3.214,3.256,3.256,0,0,1,3.533-3.193,4.306,4.306,0,0,1,3.345,1.325v-1.747c0-1.306-1.086-2.048-2.55-2.048a4.079,4.079,0,0,0-3.093,1.345l-.732-1.044a5.391,5.391,0,0,1,4.035-1.607c2.132,0,3.909.924,3.909,3.274v6.669Zm0-3.877a3.441,3.441,0,0,0-2.78-1.205,2.146,2.146,0,1,0,0,4.239,3.441,3.441,0,0,0,2.78-1.205Zm4.392,6.309a2.5,2.5,0,0,0,.856.161,1.449,1.449,0,0,0,1.5-1.026l.67-1.465-4.223-9.8h1.693l3.366,7.953,3.345-7.953h1.714l-5.059,11.67a3,3,0,0,1-2.968,1.969,5.348,5.348,0,0,1-1.15-.14Zm15.366-7.292a5,5,0,1,1,5,5.1A4.847,4.847,0,0,1,163.246,233.673Zm8.341,0c0-1.969-1.192-3.737-3.345-3.737a3.436,3.436,0,0,0-3.366,3.737c0,1.989,1.212,3.757,3.366,3.757S171.587,235.662,171.587,233.673Zm6.21-3.515v8.376h-1.568v-8.376h-1.672v-1.325h1.672v-.744a2.819,2.819,0,0,1,2.926-3.154,2.986,2.986,0,0,1,1.526.341l-.4,1.125a1.777,1.777,0,0,0-.9-.221c-1.024,0-1.588.683-1.588,1.908v.744h2.048v1.325Zm9.241,6.006a4.657,4.657,0,0,0,3.323,1.386c1.548,0,2.384-.663,2.384-1.607,0-1.065-1.234-1.406-2.592-1.727-1.714-.382-3.658-.823-3.658-2.832,0-1.506,1.358-2.792,3.763-2.792A5.224,5.224,0,0,1,194,230l-.732,1.044a4.008,4.008,0,0,0-3.01-1.225c-1.38,0-2.236.6-2.236,1.467,0,.943,1.15,1.245,2.466,1.546,1.756.382,3.784.864,3.784,3.013,0,1.626-1.36,2.932-3.972,2.932a5.491,5.491,0,0,1-4.076-1.526Zm14.174-7.573c3.052,0,4.849,2.29,4.849,5.2v.382h-8.173a3.5,3.5,0,0,0,3.638,3.355,4.506,4.506,0,0,0,3.115-1.225l.752.984a5.606,5.606,0,0,1-4.013,1.487,5.093,5.093,0,0,1-.168-10.184Zm-3.324,4.48h6.627a3.2,3.2,0,0,0-3.323-3.235A3.3,3.3,0,0,0,197.887,233.072Zm17.018,5.462v-1.1a4.454,4.454,0,0,1-3.345,1.345,3.31,3.31,0,0,1-3.533-3.214,3.256,3.256,0,0,1,3.533-3.193,4.3,4.3,0,0,1,3.345,1.325v-1.747c0-1.306-1.086-2.048-2.55-2.048a4.079,4.079,0,0,0-3.093,1.345l-.732-1.044a5.391,5.391,0,0,1,4.035-1.607c2.132,0,3.909.924,3.909,3.274v6.669Zm0-3.877a3.441,3.441,0,0,0-2.78-1.205,2.146,2.146,0,1,0,0,4.239,3.441,3.441,0,0,0,2.78-1.205Zm4.642,1.507a4.658,4.658,0,0,0,3.324,1.386c1.546,0,2.383-.663,2.383-1.607,0-1.065-1.234-1.406-2.592-1.727-1.714-.382-3.658-.823-3.658-2.832,0-1.506,1.36-2.792,3.763-2.792A5.224,5.224,0,0,1,226.508,230l-.732,1.044a4.008,4.008,0,0,0-3.01-1.225c-1.379,0-2.236.6-2.236,1.467,0,.943,1.15,1.245,2.466,1.546,1.756.382,3.784.864,3.784,3.013,0,1.626-1.358,2.932-3.972,2.932a5.487,5.487,0,0,1-4.075-1.526Zm9.2-2.491a5,5,0,1,1,5,5.1A4.847,4.847,0,0,1,228.746,233.673Zm8.341,0c0-1.969-1.192-3.737-3.345-3.737a3.436,3.436,0,0,0-3.366,3.737c0,1.989,1.212,3.757,3.366,3.757S237.087,235.662,237.087,233.673Zm11.017,4.861v-6.346a1.965,1.965,0,0,0-2.257-2.251,3.946,3.946,0,0,0-2.99,1.507v7.09h-1.568v-9.7h1.568v1.406a5.086,5.086,0,0,1,3.6-1.648c2.111,0,3.219,1.024,3.219,3.133v6.809Zm11.019,0v-1.1a4.455,4.455,0,0,1-3.345,1.345,3.311,3.311,0,0,1-3.534-3.214,3.257,3.257,0,0,1,3.534-3.193,4.308,4.308,0,0,1,3.345,1.325v-1.747c0-1.306-1.088-2.048-2.55-2.048a4.082,4.082,0,0,0-3.094,1.345l-.732-1.044a5.4,5.4,0,0,1,4.035-1.607c2.132,0,3.909.924,3.909,3.274v6.669Zm0-3.877a3.441,3.441,0,0,0-2.78-1.205,2.147,2.147,0,1,0,0,4.239,3.441,3.441,0,0,0,2.78-1.205Zm4.7,3.877v-13.4H265.4v13.4Zm18.96,3.7h-1.568v-5.161a4.175,4.175,0,0,1-3.385,1.707c-2.656,0-4.495-1.969-4.495-5.1,0-3.154,1.839-5.082,4.495-5.082a4.231,4.231,0,0,1,3.385,1.687v-1.445h1.568Zm-1.568-10.745a3.737,3.737,0,0,0-3.009-1.548c-2.028,0-3.24,1.587-3.24,3.737s1.212,3.757,3.24,3.757a3.755,3.755,0,0,0,3.009-1.567Zm11.521,7.049v-1.366a5.023,5.023,0,0,1-3.6,1.607c-2.111,0-3.219-.984-3.219-3.093v-6.85h1.568v6.387c0,1.708.9,2.21,2.257,2.21a3.913,3.913,0,0,0,2.99-1.467v-7.13h1.568v9.7Zm4.432-12.352a1.057,1.057,0,0,1,2.112,0,1.057,1.057,0,0,1-2.112,0Zm.272,12.352v-9.7h1.568v9.7Zm9.157-9.942a4.386,4.386,0,0,1,3.7,1.687l-1.046.924a3.033,3.033,0,0,0-2.571-1.266,3.756,3.756,0,0,0,0,7.493,3.085,3.085,0,0,0,2.571-1.266l1.046.924a4.386,4.386,0,0,1-3.7,1.687,5.092,5.092,0,0,1,0-10.184Zm12.731,9.942v-6.387c0-1.707-.92-2.21-2.278-2.21a4.015,4.015,0,0,0-2.989,1.507v7.09H312.5v-13.4h1.568v5.1a5.093,5.093,0,0,1,3.616-1.648c2.111,0,3.219.984,3.219,3.093v6.85Zm9.095-9.942c3.052,0,4.85,2.29,4.85,5.2v.382H325.1a3.494,3.494,0,0,0,3.637,3.355,4.5,4.5,0,0,0,3.115-1.225l.752.984a5.6,5.6,0,0,1-4.013,1.487,5.093,5.093,0,0,1-.168-10.184Zm-3.323,4.48h6.625a3.2,3.2,0,0,0-3.323-3.235A3.3,3.3,0,0,0,325.1,233.072Zm18.1-2.913v8.376h-1.568v-8.376h-1.672v-1.325h1.672v-.744a2.819,2.819,0,0,1,2.926-3.154,2.982,2.982,0,0,1,1.526.341l-.4,1.144a1.634,1.634,0,0,0-.9-.24c-1.024,0-1.588.683-1.588,1.908v.744h2.048v1.325Zm3.909,8.376v-13.4h1.568v13.4Zm11.039,0v-1.1a4.455,4.455,0,0,1-3.345,1.345,3.31,3.31,0,0,1-3.533-3.214,3.256,3.256,0,0,1,3.533-3.193,4.3,4.3,0,0,1,3.345,1.325v-1.747c0-1.306-1.086-2.048-2.55-2.048a4.079,4.079,0,0,0-3.093,1.345l-.732-1.044a5.391,5.391,0,0,1,4.035-1.607c2.132,0,3.909.924,3.909,3.274v6.669Zm0-3.877a3.441,3.441,0,0,0-2.78-1.205,2.146,2.146,0,1,0,0,4.239,3.441,3.441,0,0,0,2.78-1.205Zm7.4,3.877-4.2-9.7h1.693l3.366,7.953,3.345-7.953h1.714l-4.2,9.7Zm6.964-4.861a5,5,0,1,1,5,5.1A4.846,4.846,0,0,1,372.521,233.673Zm8.34,0c0-1.969-1.192-3.737-3.344-3.737a3.436,3.436,0,0,0-3.365,3.737c0,1.989,1.212,3.757,3.365,3.757S380.861,235.662,380.861,233.673Zm4.2,4.861v-9.7h1.568V230.4A4.336,4.336,0,0,1,390,228.632v1.546a2.846,2.846,0,0,0-.626-.061,3.722,3.722,0,0,0-2.738,1.548v6.868Zm6.837-2.37a4.657,4.657,0,0,0,3.323,1.386c1.548,0,2.384-.663,2.384-1.607,0-1.065-1.234-1.406-2.592-1.727-1.714-.382-3.658-.823-3.658-2.832,0-1.506,1.358-2.792,3.763-2.792A5.224,5.224,0,0,1,398.862,230l-.732,1.044a4.009,4.009,0,0,0-3.01-1.225c-1.38,0-2.236.6-2.236,1.467,0,.943,1.15,1.245,2.466,1.546,1.756.382,3.784.864,3.784,3.013,0,1.626-1.36,2.932-3.972,2.932a5.491,5.491,0,0,1-4.077-1.526Zm14.906-9.983a1.057,1.057,0,0,1,2.112,0,1.056,1.056,0,0,1-2.112,0Zm.272,12.352v-9.7h1.568v9.7Zm11.519,0v-6.346a1.966,1.966,0,0,0-2.258-2.251,3.943,3.943,0,0,0-2.989,1.507v7.09h-1.568v-9.7h1.568v1.406a5.083,5.083,0,0,1,3.595-1.648c2.112,0,3.219,1.024,3.219,3.133v6.809Zm10.1,0v-9.7h1.567V230.4a4.341,4.341,0,0,1,3.366-1.768v1.546a2.85,2.85,0,0,0-.628-.061,3.725,3.725,0,0,0-2.738,1.548v6.868Zm6.627-12.352a1.057,1.057,0,0,1,2.112,0,1.056,1.056,0,0,1-2.112,0Zm.272,12.352v-9.7h1.568v9.7Zm9.157-9.942a4.383,4.383,0,0,1,3.7,1.687l-1.044.924a3.033,3.033,0,0,0-2.571-1.266,3.756,3.756,0,0,0,0,7.493,3.085,3.085,0,0,0,2.571-1.266l1.044.924a4.383,4.383,0,0,1-3.7,1.687,5.092,5.092,0,0,1,0-10.184Zm12.731,9.942v-6.387c0-1.707-.92-2.21-2.278-2.21a4.02,4.02,0,0,0-2.99,1.507v7.09h-1.567v-13.4h1.567v5.1a5.1,5.1,0,0,1,3.616-1.648c2.112,0,3.22.984,3.22,3.093v6.85Z" transform="translate(-0.217 -221.798)" fill="#414141"/>
                    </g>
                  </g>
                </g>
                <g id="Group_239" data-name="Group 239" transform="translate(0 285.483)" style="isolation: isolate">
                  <g id="Group_238" data-name="Group 238">
                    <g id="Group_237" data-name="Group 237" clip-path="url(#clip-path-10)">
                      <text id="savory_egg_and_cream_lling_in_our_signature_aky_butter_" data-name="savory egg and cream ﬁlling in our signature ﬂaky butter " transform="translate(0 15.931)" fill="#414141" font-size="20" font-family="ProximaNova-Regular, Proxima Nova"><tspan x="0" y="0">savory egg and cream ﬁlling in our signature ﬂaky butter </tspan></text>
                    </g>
                  </g>
                </g>
                <g id="Group_242" data-name="Group 242" transform="translate(0 320.644)" style="isolation: isolate">
                  <g id="Group_241" data-name="Group 241" transform="translate(0 0)">
                    <g id="Group_240" data-name="Group 240" clip-path="url(#clip-path-11)">
                      <text id="crust._avors_change_seasonally_" data-name="crust. (ﬂavors change seasonally)" transform="translate(0 15.932)" fill="#414141" font-size="20" font-family="ProximaNova-Regular, Proxima Nova"><tspan x="0" y="0">crust. (ﬂavors change seasonally)</tspan></text>
                    </g>
                  </g>
                </g>
                <g id="Group_245" data-name="Group 245" transform="translate(0 421.948)" style="isolation: isolate">
                  <g id="Group_244" data-name="Group 244">
                    <g id="Group_243" data-name="Group 243" clip-path="url(#clip-path-12)">
                      <text id="Take_Bake_Yo_Mama_s_Apple_Cinnamon_" data-name="Take &amp; Bake Yo’Mama’s Apple Cinnamon " transform="translate(0 20.776)" fill="#414141" font-size="25" font-family="ProximaNova-Bold, Proxima Nova" font-weight="700"><tspan x="0" y="0" letter-spacing="-0.077em">T</tspan><tspan y="0">a</tspan><tspan y="0" letter-spacing="-0.02em">k</tspan><tspan y="0">e &amp; Ba</tspan><tspan y="0" letter-spacing="-0.02em">k</tspan><tspan y="0">e </tspan><tspan y="0" letter-spacing="-0.123em">Y</tspan><tspan y="0" letter-spacing="-0.009em">o</tspan><tspan y="0">’Mam</tspan><tspan y="0" letter-spacing="-0.013em">a</tspan><tspan y="0" letter-spacing="-0.029em">’</tspan><tspan y="0">s Apple Cinnamon </tspan></text>
                    </g>
                  </g>
                </g>
                <g id="Group_248" data-name="Group 248" transform="translate(0 457.11)" style="isolation: isolate">
                  <g id="Group_247" data-name="Group 247">
                    <g id="Group_246" data-name="Group 246" clip-path="url(#clip-path-13)">
                      <text id="Pie" transform="translate(0 20.776)" fill="#414141" font-size="25" font-family="ProximaNova-Bold, Proxima Nova" font-weight="700"><tspan x="0" y="0">Pie</tspan></text>
                    </g>
                  </g>
                </g>
                <g id="Group_251" data-name="Group 251" transform="translate(0 496.455)" style="isolation: isolate">
                  <g id="Group_250" data-name="Group 250">
                    <g id="Group_249" data-name="Group 249" clip-path="url(#clip-path-14)">
                      <text id="Our_best-selling_apple_pie_fresh_out_of_your_oven." data-name="Our best-selling apple pie, fresh out of your oven." transform="translate(0 15.932)" fill="#414141" font-size="20" font-family="ProximaNova-Regular, Proxima Nova"><tspan x="0" y="0">Our best-selling apple pi</tspan><tspan y="0" letter-spacing="-0.006em">e</tspan><tspan y="0">, fresh out of your oven.</tspan></text>
                    </g>
                  </g>
                </g>
              </g>
            </g>
          </g>
          <g id="Group_260" data-name="Group 260" transform="translate(561.788 274.702)" style="isolation: isolate">
            <g id="Group_259" data-name="Group 259">
              <g id="Group_258" data-name="Group 258" clip-path="url(#clip-path-15)">
                <g id="Group_257" data-name="Group 257" style="isolation: isolate">
                  <g id="Group_256" data-name="Group 256">
                    <g id="Group_255" data-name="Group 255" clip-path="url(#clip-path-15)">
                      <text id="_279_-" data-name="279,-" transform="translate(-0.001 24.622)" fill="#414141" font-size="29" font-family="ProximaNova-Regular, Proxima Nova"><tspan x="0" y="0">27</tspan><tspan y="0" letter-spacing="-0.03em">9</tspan><tspan y="0">,-</tspan></text>
                    </g>
                  </g>
                </g>
              </g>
            </g>
          </g>
          <g id="Group_266" data-name="Group 266" transform="translate(561.788 491.704)" style="isolation: isolate">
            <g id="Group_265" data-name="Group 265">
              <g id="Group_264" data-name="Group 264" clip-path="url(#clip-path-15)">
                <g id="Group_263" data-name="Group 263" style="isolation: isolate">
                  <g id="Group_262" data-name="Group 262">
                    <g id="Group_261" data-name="Group 261" clip-path="url(#clip-path-15)">
                      <text id="_279_--2" data-name="279,-" transform="translate(-0.001 24.62)" fill="#414141" font-size="29" font-family="ProximaNova-Regular, Proxima Nova"><tspan x="0" y="0">27</tspan><tspan y="0" letter-spacing="-0.03em">9</tspan><tspan y="0">,-</tspan></text>
                    </g>
                  </g>
                </g>
              </g>
            </g>
          </g>
          <g id="Group_272" data-name="Group 272" transform="translate(0.445 2.278)" style="isolation: isolate">
            <g id="Group_271" data-name="Group 271">
              <g id="Group_270" data-name="Group 270" clip-path="url(#clip-path-19)">
                <g id="Group_269" data-name="Group 269" style="isolation: isolate">
                  <g id="Group_268" data-name="Group 268">
                    <g id="Group_267" data-name="Group 267" clip-path="url(#clip-path-19)">
                      <text id="TAKE_BAKE" data-name="TAKE &amp; BAKE" transform="translate(0 28.465)" fill="#414141" font-size="34" font-family="ProximaNova-Regular, Proxima Nova"><tspan x="0" y="0" letter-spacing="-0.066em">T</tspan><tspan y="0">AKE &amp; BAKE</tspan></text>
                      <path id="Path_8" data-name="Path 8" d="M.308,24.983h217.5v1.312H.308Z" transform="translate(-0.308 9.172)" fill="#414141"/>
                    </g>
                  </g>
                </g>
              </g>
            </g>
          </g>
        </g>
      </g>
    </g>
  </g>
</svg>
